<svg width="32" height="32" viewBox="0 0 32 32" fill="none" xmlns="http://www.w3.org/2000/svg">
<rect width="32" height="32" rx="12" fill="#AE328F"/>
<path d="M15.9999 24.3333C14.0694 23.8472 12.4756 22.7396 11.2187 21.0104C9.96172 19.2813 9.33325 17.3611 9.33325 15.25V10.1667L15.9999 7.66667L22.6666 10.1667V15.25C22.6666 17.3611 22.0381 19.2813 20.7812 21.0104C19.5242 22.7396 17.9305 23.8472 15.9999 24.3333ZM15.9999 22.5833C17.3471 22.1667 18.4721 21.3438 19.3749 20.1146C20.2777 18.8854 20.8055 17.5139 20.9583 16H15.9999V9.4375L10.9999 11.3125V15.25C10.9999 15.4028 10.9999 15.5278 10.9999 15.625C10.9999 15.7222 11.0138 15.8472 11.0416 16H15.9999V22.5833Z" fill="white"/>
</svg>
