<svg width="144" height="144" viewBox="0 0 144 144" fill="none" xmlns="http://www.w3.org/2000/svg">
<g opacity="0.05">
<path d="M45.3333 98.6667H56V72H45.3333V98.6667ZM88 98.6667H98.6667V45.3333H88V98.6667ZM66.6667 98.6667H77.3333V82.6667H66.6667V98.6667ZM66.6667 72H77.3333V61.3333H66.6667V72ZM34.6667 120C31.7333 120 29.2222 118.956 27.1333 116.867C25.0444 114.778 24 112.267 24 109.333V34.6667C24 31.7333 25.0444 29.2222 27.1333 27.1333C29.2222 25.0444 31.7333 24 34.6667 24H109.333C112.267 24 114.778 25.0444 116.867 27.1333C118.956 29.2222 120 31.7333 120 34.6667V109.333C120 112.267 118.956 114.778 116.867 116.867C114.778 118.956 112.267 120 109.333 120H34.6667ZM34.6667 109.333H109.333V34.6667H34.6667V109.333ZM34.6667 34.6667V109.333V34.6667Z" fill="#AE328F"/>
</g>
</svg>
